<?xml version="1.0" encoding="UTF-8" standalone="no"?>
<svg width="24px" height="24px" viewBox="0 0 24 24" version="1.1" xmlns="http://www.w3.org/2000/svg" xmlns:xlink="http://www.w3.org/1999/xlink">
    <!-- Generator: sketchtool 41 (35326) - http://www.bohemiancoding.com/sketch -->
    <title>5A01F02A-9ACA-4F37-B211-202F7F8EBFBB</title>
    <desc>Created with sketchtool.</desc>
    <defs></defs>
    <g id="Page-1" stroke="none" stroke-width="1" fill="none" fill-rule="evenodd">
        <g id="Desktop_02" transform="translate(-1167.000000, -29.000000)" fill="#63E6BE">
            <g id="Group-2" transform="translate(1167.000000, 28.000000)">
                <path d="M6.89949494,14.8994949 L6.89949494,3.90634041 C6.89949494,3.34944369 6.45177969,2.89949494 5.89949494,2.89949494 C5.34335976,2.89949494 4.89949494,3.35027501 4.89949494,3.90634041 L4.89949494,15.8926495 C4.89949494,15.8937913 4.89949682,15.8949326 4.89950058,15.8960735 C4.89949686,15.8972118 4.89949494,15.8983532 4.89949494,15.8994949 C4.89949494,16.1764237 5.01126873,16.4255142 5.19215793,16.6058245 C5.3754017,16.7879277 5.62448403,16.8994949 5.89949494,16.8994949 C5.90063677,16.8994949 5.90177814,16.899493 5.90291903,16.8994892 C5.9040573,16.8994931 5.90519863,16.8994949 5.90634041,16.8994949 L17.8926495,16.8994949 C18.4495462,16.8994949 18.8994949,16.4517797 18.8994949,15.8994949 C18.8994949,15.3433598 18.4487149,14.8994949 17.8926495,14.8994949 L6.89949494,14.8994949 Z" id="Combined-Shape" transform="translate(11.899495, 9.899495) rotate(-45.000000) translate(-11.899495, -9.899495) "></path>
            </g>
        </g>
    </g>
</svg>