<?xml version="1.0" encoding="UTF-8" standalone="no"?>
<svg width="24px" height="24px" viewBox="0 0 24 24" version="1.1" xmlns="http://www.w3.org/2000/svg" xmlns:xlink="http://www.w3.org/1999/xlink">
    <!-- Generator: sketchtool 41 (35326) - http://www.bohemiancoding.com/sketch -->
    <title>DAC6C60C-3C42-476F-97B1-87087C29BCB5</title>
    <desc>Created with sketchtool.</desc>
    <defs></defs>
    <g id="Page-1" stroke="none" stroke-width="1" fill="none" fill-rule="evenodd">
        <g id="Desktop_02" transform="translate(-588.000000, -554.000000)" fill="#A9AFB3">
            <g id="controller" transform="translate(279.000000, 553.000000)">
                <g id="font-size" transform="translate(309.000000, 1.000000)">
                    <path d="M23,6 C22.4477153,6 22,5.55228475 22,5 L22,3 L16,3 L16,20 L18,20 C18.5522847,20 19,20.4477153 19,21 C19,21.5522847 18.5522847,22 18,22 L12,22 C11.4477153,22 11,21.5522847 11,21 C11,20.4477153 11.4477153,20 12,20 L14,20 L14,3 L8,3 L8,5 C8,5.55228475 7.55228475,6 7,6 C6.44771525,6 6,5.55228475 6,5 L6,2 C6,1.44771525 6.44771525,1 7,1 L23,1 C23.5522847,1 24,1.44771525 24,2 L24,5 C24,5.55228475 23.5522847,6 23,6 Z M10,14 C9.44771525,14 9,13.5522847 9,13 L7,13 L7,20 L8,20 C8.55228475,20 9,20.4477153 9,21 C9,21.5522847 8.55228475,22 8,22 L4,22 C3.44771525,22 3,21.5522847 3,21 C3,20.4477153 3.44771525,20 4,20 L5,20 L5,13 L3,13 C3,13.5522847 2.55228475,14 2,14 C1.44771525,14 1,13.5522847 1,13 L1,12 C1,11.4477153 1.44771525,11 2,11 L10,11 C10.5522847,11 11,11.4477153 11,12 L11,13 C11,13.5522847 10.5522847,14 10,14 Z"></path>
                </g>
            </g>
        </g>
    </g>
</svg>