<?xml version="1.0" encoding="UTF-8" standalone="no"?>
<svg width="24px" height="24px" viewBox="0 0 24 24" version="1.1" xmlns="http://www.w3.org/2000/svg" xmlns:xlink="http://www.w3.org/1999/xlink">
    <!-- Generator: sketchtool 41 (35326) - http://www.bohemiancoding.com/sketch -->
    <title>FED8EC41-D951-4680-B71C-D72C5A9441B8</title>
    <desc>Created with sketchtool.</desc>
    <defs></defs>
    <g id="Page-1" stroke="none" stroke-width="1" fill="none" fill-rule="evenodd">
        <g id="Desktop_02" transform="translate(-994.000000, -554.000000)" fill="#A9AFB3">
            <g id="controller" transform="translate(279.000000, 553.000000)">
                <g id="Group-5" transform="translate(715.000000, 1.000000)">
                    <path d="M22.885,21.309 L19.977,23.767 C19.8159935,23.9263079 19.575517,23.9742891 19.3657011,23.8889698 C19.1558852,23.8036504 19.0171375,23.6014618 19.013,23.375 L19.013,21.969 L5.019,21.969 L5.019,23.385 C5.01486251,23.6114618 4.87611478,23.8136504 4.6662989,23.8989698 C4.45648303,23.9842891 4.2160065,23.9363079 4.055,23.777 L1.147,21.349 C1.04124836,21.2461971 0.981583434,21.1049851 0.981583434,20.9575 C0.981583434,20.8100149 1.04124836,20.6688029 1.147,20.566 L4.056,18.108 C4.2170065,17.9486921 4.45748303,17.9007109 4.6672989,17.9860302 C4.87711478,18.0713496 5.01586251,18.2735382 5.02,18.5 L5.02,20.032 L19.012,20.032 L19.012,18.49 C19.0161375,18.2635382 19.1548852,18.0613496 19.3647011,17.9760302 C19.574517,17.8907109 19.8149935,17.9386921 19.976,18.098 L22.884,20.526 C22.9898831,20.6286677 23.0497284,20.7698037 23.0499168,20.9172887 C23.0501051,21.0647738 22.9906205,21.2060621 22.885,21.309 L22.885,21.309 Z M12.04,2.069 C12.0334093,1.51866869 11.583357,1.07710794 11.033,1.081 C10.6025381,1.07032547 10.2070142,1.31683984 10.027,1.708 L6.5,13.627 L3.014,1.708 C2.82862823,1.32159952 2.43654851,1.07723174 2.008,1.081 C1.45854888,1.08721455 1.00893675,1.52017438 0.982,2.069 C0.977746937,2.19371046 1.0038268,2.31758981 1.058,2.43 L4.975,14.973 C5.21460887,15.5817342 5.80280754,15.9814077 6.457,15.98 L6.552,15.98 C7.20298202,15.9710767 7.78596849,15.5749448 8.034,14.973 L11.983,2.43 C12.0204285,2.31330846 12.0396541,2.19154668 12.04,2.069 Z M22.018,15.98 C21.5853706,15.9889718 21.1844524,15.7539107 20.981,15.372 L20.248,13 L14.723,13 L14,15.373 C13.7965476,15.7549107 13.3956294,15.9899718 12.963,15.981 C12.4082121,15.9777236 11.9592764,15.5287879 11.956,14.974 C11.957785,14.8515725 11.9769772,14.7300215 12.013,14.613 L15.961,2.088 C16.2190301,1.47704009 16.8177869,1.07995015 17.481,1.07995015 C18.1442131,1.07995015 18.7429699,1.47704009 19.001,2.088 L22.949,14.612 C22.9995262,14.7256213 23.0254273,14.8486516 23.025,14.973 C23.0159191,15.5255101 22.5705008,15.9713707 22.018,15.981 L22.018,15.98 Z M17.469,4 L15.334,11 L19.634,11 L17.469,4 Z" id="letter-spacing"></path>
                </g>
            </g>
        </g>
    </g>
</svg>